<?xml version="1.0" standalone="no"?>
 <svg version="1.0" xmlns="http://www.w3.org/2000/svg"
 width="800.000000pt" height="600.000000pt" viewBox="0 0 800.000000 600.000000"
 preserveAspectRatio="xMidYMid meet">

<g transform="translate(0.000000,600.000000) scale(0.100000,-0.100000)"
fill="#000000" stroke="none">
<path d="M3875 4297 c-111 -37 -221 -129 -265 -222 -13 -27 -36 -60 -52 -73
-17 -14 -28 -33 -28 -48 l0 -24 -219 0 c-210 0 -219 -1 -224 -20 -5 -20 0 -20
214 -20 180 0 219 -2 219 -14 0 -24 -39 -29 -245 -35 l-200 -6 0 -590 0 -590
53 -3 c50 -3 52 -4 52 -32 0 -19 7 -33 20 -40 11 -6 17 -16 14 -25 -5 -12 -25
-15 -90 -15 -72 0 -85 3 -94 19 -16 32 -13 1286 4 1333 13 35 12 37 -5 28 -50
-28 -49 -7 -49 -703 0 -724 -3 -697 68 -716 20 -6 60 -11 89 -11 l51 0 -49
-114 c-54 -125 -56 -139 -34 -193 8 -19 15 -37 15 -39 0 -2 -196 -4 -435 -4
-257 0 -435 4 -435 9 0 5 23 43 50 84 85 127 95 157 95 277 0 98 -2 109 -30
159 -50 91 -119 126 -189 97 -55 -23 -68 -64 -76 -231 -8 -190 -14 -202 -195
-380 -78 -77 -147 -149 -153 -160 -6 -11 -13 -18 -15 -15 -12 12 19 123 58
210 57 124 69 175 62 264 -8 115 -46 184 -173 317 -40 41 -76 88 -80 103 -4
16 -3 65 2 110 15 150 11 217 -16 271 -62 120 -225 163 -316 83 -53 -47 -67
-82 -68 -169 0 -72 3 -81 59 -195 59 -119 60 -119 59 -209 0 -88 -1 -92 -46
-178 -98 -185 -89 -319 33 -505 l21 -33 -34 20 c-19 12 -68 29 -109 39 -142
36 -183 69 -249 202 -46 92 -136 195 -206 236 -53 31 -124 44 -176 32 -153
-34 -185 -217 -59 -331 21 -18 80 -56 131 -83 166 -87 220 -162 220 -308 1
-253 71 -373 261 -445 78 -30 139 -65 139 -79 0 -4 -10 -12 -22 -17 -34 -15
-33 -36 6 -125 l36 -81 0 -155 c0 -169 14 -258 55 -364 14 -35 24 -64 22 -64
-38 -12 -51 -46 -33 -88 7 -16 -8 -18 -220 -20 -209 -3 -229 -5 -232 -21 -3
-16 45 -17 945 -15 835 3 948 5 948 18 0 13 -30 15 -202 18 l-203 2 0 739 0
738 33 9 c22 7 36 19 46 42 l15 32 498 0 498 0 0 -55 c0 -37 -6 -65 -20 -87
l-20 -33 0 38 c0 48 -23 102 -48 116 -12 6 -54 11 -94 11 -85 0 -111 -13 -128
-65 -16 -50 11 -106 60 -121 l35 -12 2 -145 c2 -158 10 -187 60 -226 14 -12
46 -26 70 -32 l43 -11 0 -365 c0 -338 -1 -364 -17 -369 -80 -23 -127 -77 -138
-154 l-7 -50 -216 -2 c-197 -3 -217 -5 -220 -21 -3 -16 56 -17 1170 -15 1035
3 1173 5 1173 18 0 13 -29 15 -192 18 l-191 2 -7 50 c-11 77 -58 131 -137 154
-17 5 -18 31 -18 370 l0 364 33 7 c43 10 94 42 115 73 13 21 18 58 22 180 l5
154 35 12 c49 15 76 71 60 121 -17 52 -43 65 -128 65 -40 0 -82 -5 -94 -11
-25 -14 -48 -68 -48 -116 l0 -38 -20 33 c-14 22 -20 50 -20 87 l0 55 585 0
585 0 0 -780 0 -780 -232 -2 c-199 -3 -233 -5 -233 -18 0 -13 120 -15 1013
-18 962 -2 1013 -1 1010 15 -3 16 -23 18 -226 21 l-222 2 0 523 c0 393 -3 526
-12 535 -7 7 -32 12 -57 12 -41 0 -48 4 -63 31 -22 38 -23 63 -2 94 15 23 15
27 0 50 -16 24 -21 25 -116 25 l-101 0 16 30 c11 21 15 62 15 154 0 117 -1
126 -22 140 l-21 15 31 116 c18 63 32 126 33 138 0 22 0 22 10 1 8 -15 6 -37
-4 -77 -12 -46 -13 -59 -2 -74 7 -10 17 -15 21 -11 4 4 2 13 -4 21 -8 9 -7 28
4 71 14 52 14 60 0 81 -22 33 -83 49 -113 30 -22 -15 -33 -44 -69 -182 -10
-40 -21 -73 -25 -73 -3 0 -16 37 -28 82 -32 115 -102 199 -115 136 -14 -70
-13 -92 9 -172 24 -86 24 -87 4 -107 -16 -16 -19 -33 -19 -129 0 -76 5 -122
15 -147 8 -19 15 -37 15 -39 0 -2 -40 -4 -90 -4 -120 0 -130 -9 -130 -120 l0
-80 -65 0 -65 0 0 300 0 301 -25 24 c-20 21 -34 25 -82 25 l-58 0 3 163 c3
142 1 166 -13 180 -14 14 -39 17 -146 17 -72 0 -139 -5 -149 -10 -11 -6 -22
-26 -26 -47 -4 -22 -18 -46 -35 -61 -37 -31 -41 -90 -7 -122 12 -11 25 -20 29
-20 4 0 10 -16 13 -36 4 -19 10 -42 13 -50 4 -12 -34 -14 -261 -14 -146 0
-266 3 -266 8 1 4 7 18 15 32 23 40 17 84 -24 177 -61 140 -61 133 -4 133 26
0 65 5 85 11 71 19 68 -9 68 719 l0 652 -29 29 -29 29 -246 0 -246 0 0 24 c0
15 -11 34 -29 48 -15 13 -39 46 -52 73 -35 73 -125 159 -206 198 -60 28 -79
32 -168 34 -63 2 -115 -2 -140 -10z m235 -39 c65 -20 125 -56 171 -105 59 -62
93 -118 84 -141 -5 -14 -11 -9 -27 23 -34 65 -78 115 -135 151 -185 119 -421
58 -532 -138 -23 -40 -32 -48 -37 -35 -8 22 35 94 88 147 102 100 254 138 388
98z m-142 -119 c19 -6 36 -23 46 -44 19 -39 19 -39 5 -88 -9 -35 -12 -37 -23
-21 -20 26 -36 8 -36 -41 0 -39 -4 -46 -36 -65 -68 -43 -146 -42 -181 2 -51
64 9 197 110 244 59 27 71 28 115 13z m-350 -197 c3 -18 -1 -22 -22 -22 -19 0
-26 5 -26 18 0 39 43 43 48 4z m810 0 c3 -18 -1 -22 -22 -22 -19 0 -26 5 -26
18 0 39 43 43 48 4z m536 -74 c14 -20 16 -99 16 -656 0 -417 -4 -640 -10 -653
-9 -16 -22 -19 -91 -19 -64 0 -81 3 -86 16 -4 10 0 20 10 26 10 5 17 21 17 38
0 28 2 29 53 32 l52 3 3 585 c2 541 1 586 -15 598 -12 8 -69 12 -199 12 -175
0 -234 8 -234 30 0 6 81 10 234 10 231 0 235 0 250 -22z m-1444 -198 c0 -77
-4 -140 -9 -140 -13 0 -61 51 -61 66 0 8 4 14 8 14 11 0 32 46 32 69 0 10 -9
30 -21 45 -11 14 -17 31 -13 38 15 27 38 48 51 48 10 0 13 -29 13 -140z m1013
108 l20 -26 -22 -28 c-11 -14 -21 -35 -21 -45 0 -23 21 -69 32 -69 4 0 8 -6 8
-14 0 -15 -48 -66 -61 -66 -5 0 -9 63 -9 141 0 125 2 140 16 137 9 -2 26 -15
37 -30z m-1119 5 c-5 -10 -9 -62 -9 -115 0 -112 12 -138 83 -173 23 -11 44
-24 48 -28 4 -3 -8 -23 -25 -42 -18 -20 -34 -49 -37 -63 -4 -15 -20 -36 -37
-47 -38 -24 -62 -86 -49 -124 7 -19 4 -34 -9 -56 -21 -33 -25 -105 -8 -136 9
-18 3 -28 -38 -72 -35 -37 -60 -79 -88 -144 l-39 -93 -48 0 -48 0 0 555 0 555
156 0 c145 0 156 -1 148 -17z m1476 -538 l0 -555 -49 0 -48 0 -18 48 c-35 94
-74 159 -120 201 -69 63 -122 83 -237 89 l-98 5 -20 33 c-10 19 -31 39 -45 46
-35 16 -34 55 3 69 68 26 111 100 112 192 0 57 0 57 30 57 18 0 39 9 52 23 12
12 40 31 62 42 69 36 81 62 81 173 0 53 -4 105 -9 115 -8 16 3 17 148 17 l156
0 0 -555z m-1190 260 c0 -114 67 -204 174 -232 60 -15 183 -17 246 -2 109 25
169 101 180 231 4 43 12 84 19 91 15 15 16 -265 0 -296 -15 -29 -60 -77 -72
-77 -6 0 -15 7 -22 17 -20 27 -35 5 -35 -53 l0 -54 -190 0 -190 0 0 53 c0 63
-7 73 -32 50 -22 -20 -51 -8 -83 35 -18 24 -20 45 -23 182 -2 140 -1 153 13
136 10 -13 15 -42 15 -81z m-70 -132 c1 -93 49 -170 123 -196 27 -10 22 -52
-8 -65 -14 -7 -35 -28 -46 -47 l-21 -35 -77 0 c-43 0 -92 5 -110 11 -26 9 -36
8 -57 -6 -32 -20 -38 -15 -37 31 1 48 17 63 41 41 37 -34 92 -16 92 29 0 32
-26 54 -65 54 -21 0 -35 6 -39 16 -9 24 -8 29 15 58 l22 27 29 -35 c17 -21 39
-36 50 -36 27 0 58 28 58 52 0 26 -36 58 -65 58 -30 0 -33 24 -9 58 18 26 47
40 82 41 20 1 22 -3 22 -56z m-2166 -47 c80 -34 122 -117 112 -226 -3 -38 -9
-101 -12 -139 -9 -98 4 -127 102 -228 173 -177 195 -309 90 -536 -52 -112 -59
-141 -54 -231 5 -97 23 -135 103 -226 106 -118 135 -231 91 -357 l-18 -53
-100 0 c-83 0 -99 2 -95 14 29 74 11 225 -40 338 -33 75 -34 139 -3 221 12 32
19 61 16 64 -10 10 -16 -1 -41 -73 -22 -62 -24 -66 -31 -40 -4 16 -3 76 2 135
4 58 8 187 8 286 l1 180 35 70 c19 39 36 73 38 78 2 4 -1 7 -7 7 -14 0 -39
-39 -66 -105 l-22 -56 -38 98 c-33 86 -56 179 -80 316 -6 35 -25 53 -25 22 0
-38 41 -219 65 -285 52 -147 74 -230 81 -305 4 -41 4 -75 1 -75 -3 0 -15 16
-27 35 -32 51 -152 129 -149 98 0 -5 27 -25 59 -46 46 -30 64 -49 85 -91 25
-52 26 -55 19 -198 -8 -167 -1 -207 57 -341 48 -108 50 -131 12 -95 -36 33
-90 60 -111 56 -11 -3 -2 -12 28 -27 54 -28 87 -57 106 -93 15 -28 18 -103 8
-157 l-6 -31 -98 0 c-92 0 -99 2 -138 30 -56 41 -76 81 -76 155 1 51 8 75 50
160 47 96 49 103 49 185 -1 96 -12 123 -106 255 -65 92 -93 181 -87 276 4 57
15 88 59 181 53 108 54 113 54 198 0 87 0 88 -59 205 -47 93 -61 130 -64 175
-10 142 98 228 222 176z m2094 -54 c3 -9 -2 -13 -14 -10 -9 1 -19 9 -22 16 -3
9 2 13 14 10 9 -1 19 -9 22 -16z m-68 -132 c0 -5 -7 -10 -15 -10 -8 0 -15 5
-15 10 0 6 7 10 15 10 8 0 15 -4 15 -10z m752 -71 c10 -5 18 -13 18 -18 0 -8
-261 -21 -432 -21 -54 0 -98 4 -98 8 0 11 29 37 50 46 23 9 442 -4 462 -15z
m306 -111 c77 -30 128 -92 180 -219 23 -57 42 -108 42 -114 0 -8 -183 -86
-201 -85 -4 0 -9 20 -12 44 -16 115 -113 242 -221 292 -92 42 -149 47 -392 37
-214 -9 -222 -10 -280 -38 -110 -54 -196 -166 -219 -286 l-10 -57 -105 43
c-69 28 -104 47 -102 56 2 8 24 62 48 121 60 142 124 206 229 228 17 3 246 4
510 2 456 -3 483 -4 533 -24z m-304 -103 c109 -29 192 -96 239 -195 26 -55 37
-231 17 -283 -70 -184 -198 -355 -342 -461 l-38 -27 0 55 0 56 44 0 c73 0 76
11 76 235 0 156 -3 195 -16 213 -15 22 -20 22 -224 22 -204 0 -209 0 -224 -22
-13 -18 -16 -57 -16 -213 0 -224 3 -235 76 -235 l44 0 0 -113 0 -114 -51 -16
c-33 -11 -85 -17 -149 -17 -84 0 -102 3 -131 23 -70 46 -70 48 -67 462 l3 370
27 57 c50 107 133 177 243 204 76 19 416 18 489 -1z m-1973 -138 c52 -35 81
-97 87 -182 6 -94 -14 -161 -76 -256 -27 -41 -57 -89 -66 -106 -13 -26 -23
-33 -46 -33 -17 0 -30 5 -30 10 0 30 32 79 63 99 35 21 56 51 36 51 -6 0 -18
-7 -27 -16 -21 -22 -27 -4 -13 38 6 17 11 39 11 49 0 43 -17 13 -48 -84 -18
-57 -40 -113 -48 -125 -17 -25 -52 -29 -60 -7 -7 16 -34 21 -34 6 0 -5 -13
-23 -30 -39 -38 -39 -40 -83 -5 -118 l24 -24 -44 -90 c-25 -49 -45 -95 -45
-104 0 -28 -18 -26 -30 3 -14 36 -56 76 -64 63 -3 -5 1 -16 10 -23 20 -16 44
-63 44 -85 0 -23 -50 24 -91 85 -55 84 -41 113 146 296 186 183 195 202 205
405 7 152 16 185 53 200 33 13 41 12 78 -13z m-1546 -214 c69 -46 132 -120
175 -206 22 -46 54 -99 70 -118 35 -43 125 -92 200 -109 111 -25 177 -73 220
-159 26 -51 22 -107 -12 -181 -12 -25 -22 -48 -22 -52 -1 -3 -5 -10 -9 -15
-17 -16 -37 -77 -43 -127 -6 -47 0 -86 21 -141 20 -50 -70 80 -111 160 -58
117 -63 151 -30 238 26 68 35 167 16 167 -5 0 -10 -17 -10 -37 0 -39 -40 -177
-48 -168 -3 3 -17 43 -32 89 -43 132 -100 226 -206 336 -32 33 -66 83 -85 125
-33 71 -54 71 -25 0 9 -21 16 -39 16 -42 0 -2 -25 14 -57 36 -53 39 -83 51
-83 34 0 -5 34 -30 75 -56 98 -64 194 -159 255 -253 28 -42 50 -81 50 -86 0
-5 -17 4 -37 20 -50 38 -101 64 -107 54 -3 -5 24 -27 59 -50 76 -48 120 -105
141 -181 13 -48 56 -170 78 -223 6 -14 -1 -13 -51 8 -60 24 -93 30 -93 16 0
-5 25 -16 56 -26 59 -19 112 -64 202 -174 36 -43 40 -52 24 -52 -11 0 -22 7
-25 15 -10 25 -85 73 -160 101 -124 47 -171 85 -207 167 -22 48 -40 171 -40
268 0 30 -8 78 -17 105 -24 70 -115 158 -222 213 -133 69 -191 133 -191 211 0
123 143 173 265 93z m2626 16 c41 -17 75 -33 77 -34 2 -2 -17 -52 -43 -111
-25 -59 -43 -114 -41 -121 7 -17 33 -6 39 18 3 13 14 19 31 19 26 0 26 -1 26
-76 l0 -76 -126 4 -126 3 -29 33 c-16 18 -29 42 -29 55 -1 31 122 317 136 317
7 0 45 -14 85 -31z m1457 -112 c34 -78 62 -152 62 -164 0 -38 -22 -71 -56 -88
-32 -15 -39 -14 -141 13 l-108 29 -3 76 c-2 48 1 77 7 77 6 0 22 -22 36 -49
28 -56 42 -69 51 -47 3 9 -15 64 -41 123 -26 59 -43 109 -38 111 4 1 37 16 73
32 36 16 72 29 80 29 10 1 36 -46 78 -142z m882 -64 c0 -129 -4 -147 -36 -162
-38 -17 -165 -14 -192 5 -21 14 -22 22 -22 140 l0 124 125 0 125 0 0 -107z
m-1499 75 c2 -7 2 -94 -1 -193 l-5 -180 -32 -3 -31 -3 -4 133 c-3 144 -13 173
-64 196 -54 25 -120 9 -151 -37 -14 -21 -19 -53 -21 -158 l-4 -133 -33 0 c-21
0 -35 6 -39 16 -3 9 -6 89 -6 179 0 90 3 170 6 179 5 14 32 16 194 16 142 0
189 -3 191 -12z m-751 -58 c0 -20 -5 -30 -15 -30 -18 0 -18 2 -3 35 15 32 18
32 18 -5z m1948 -62 l-3 -23 -13 23 c-10 18 -10 26 0 45 l13 22 3 -22 c2 -13
2 -33 0 -45z m-1339 23 c11 -11 23 -35 26 -53 3 -18 4 -220 3 -448 l-3 -415
-75 0 -75 0 -3 425 c-1 234 0 435 3 448 14 57 85 82 124 43z m2436 -111 c-16
-65 -35 -93 -52 -76 -9 8 25 136 39 154 25 29 30 -7 13 -78z m-226 1 c-15 -5
-22 6 -14 19 6 9 10 9 16 -1 5 -8 4 -15 -2 -18z m35 -73 c30 -106 30 -110 10
-106 -13 2 -23 22 -36 73 -21 85 -21 85 -4 85 9 0 21 -21 30 -52z m-1704 6 c0
-2 -7 -4 -15 -4 -8 0 -15 4 -15 10 0 5 7 7 15 4 8 -4 15 -8 15 -10z m1860 -51
c0 -39 -13 -63 -32 -63 -17 0 -19 5 -13 33 9 41 13 47 31 47 8 0 14 -8 14 -17z
m-3010 -33 l0 -40 -704 0 c-627 0 -706 2 -720 16 -19 19 -20 36 -4 52 9 9 183
12 720 12 l708 0 0 -40z m2398 28 c9 -9 12 -209 12 -840 l0 -828 -40 0 -40 0
0 794 c0 715 -2 794 -16 800 -9 3 -281 6 -605 6 l-589 0 0 40 0 40 633 0 c479
0 636 -3 645 -12z m640 -120 c3 -16 -7 -18 -112 -18 -90 0 -116 3 -116 13 0
23 8 25 118 23 93 -1 107 -3 110 -18z m-4353 -20 c8 -25 18 -35 43 -43 19 -5
32 -16 32 -25 0 -41 -36 -113 -99 -198 -76 -102 -86 -128 -72 -190 17 -78 -22
-162 -77 -162 -22 0 -24 3 -18 28 27 109 29 147 14 247 -1 6 18 23 43 40 32
22 39 31 27 33 -10 2 -32 -7 -49 -19 -30 -21 -33 -21 -44 -5 -17 22 3 102 51
206 52 113 59 120 102 120 34 0 39 -3 47 -32z m266 15 c-8 -15 -24 -18 -108
-17 -54 0 -104 4 -111 8 -31 19 -3 26 108 26 112 0 120 -1 111 -17z m943 -49
c9 -8 16 -26 16 -39 0 -40 -25 -55 -90 -55 -40 0 -64 5 -74 16 -22 21 -20 70
2 83 28 17 128 13 146 -5z m1446 4 c0 -28 -33 -48 -82 -48 -52 0 -62 14 -32
44 19 19 114 23 114 4z m1700 -68 c0 -84 -15 -132 -45 -144 -26 -10 -114 -7
-136 4 -32 18 -49 64 -49 138 0 38 3 72 7 75 3 4 55 7 115 7 l108 0 0 -80z
m-4170 -690 l0 -740 -30 0 -30 0 0 740 0 740 30 0 30 0 0 -740z m1310 350
l260 0 0 -55 0 -55 -252 0 c-221 0 -257 2 -287 18 -63 31 -76 60 -79 179 -2
58 -1 120 2 138 6 28 11 33 49 41 l42 9 3 -137 3 -138 259 0z m-130 199 c0
-31 -4 -37 -25 -41 -24 -5 -25 -4 -25 52 0 31 3 60 7 64 13 13 43 -39 43 -75z
m1246 25 c3 -18 4 -79 2 -137 -3 -119 -16 -148 -79 -179 -30 -16 -66 -18 -286
-18 l-253 0 0 55 0 55 260 0 260 0 0 139 0 138 45 -10 c40 -9 45 -14 51 -43z
m-2526 -644 l0 -670 -126 0 c-116 0 -126 1 -119 18 19 43 10 67 -33 89 -2 0 4
16 13 33 9 18 28 75 41 127 20 81 24 119 24 254 0 159 0 159 35 243 41 99 42
110 14 129 -20 15 -20 16 -3 48 17 33 20 74 13 159 -4 43 0 51 60 130 35 46
65 90 68 97 3 7 7 13 9 13 2 0 4 -301 4 -670z m4055 480 l0 -81 -100 3 -100 3
-3 64 c-2 35 -1 70 2 77 4 11 30 14 103 14 l98 0 0 -80z m405 70 c0 -6 -65
-11 -162 -12 l-163 -3 0 -55 0 -55 163 -3 c97 -1 162 -6 162 -12 0 -6 -66 -10
-170 -10 -194 0 -190 -2 -190 89 0 37 5 53 18 60 22 14 342 14 342 1z m-3160
-50 c0 -29 -1 -30 -50 -30 -27 0 -50 4 -50 9 0 17 52 51 76 51 20 0 24 -5 24
-30z m3138 -17 c-3 -16 -19 -18 -136 -21 -127 -2 -132 -2 -132 18 0 19 6 20
136 20 124 0 135 -2 132 -17z m152 -148 l0 -25 -450 0 -450 0 0 25 0 25 450 0
450 0 0 -25z m-3310 -210 c0 -145 -9 -195 -37 -195 -10 0 -13 35 -13 170 l0
170 25 0 25 0 0 -145z m680 135 c0 -5 -8 -13 -17 -18 -22 -10 -294 -9 -311 2
-34 20 0 26 158 26 103 0 170 -4 170 -10z m2030 -20 c0 -42 23 -50 150 -50
127 0 150 8 150 50 l0 30 150 0 150 0 0 -120 0 -120 -25 0 c-14 0 -25 -4 -25
-10 0 -5 11 -10 25 -10 14 0 25 -4 25 -10 0 -7 -157 -10 -450 -10 l-450 0 0
140 0 140 150 0 150 0 0 -30z m258 13 c-3 -16 -16 -18 -108 -18 -92 0 -105 2
-108 18 -3 15 7 17 108 17 101 0 111 -2 108 -17z m-2584 -63 l26 0 0 -205 0
-206 -27 -24 c-23 -19 -29 -33 -33 -86 -3 -37 -10 -64 -17 -67 -10 -3 -13 62
-13 303 0 299 0 305 19 295 11 -5 31 -10 45 -10z m316 -286 c0 -240 -3 -305
-12 -302 -8 3 -15 30 -18 67 -4 53 -10 67 -33 86 l-27 24 0 206 0 205 28 0
c15 0 34 5 42 10 8 5 16 10 18 10 1 0 2 -138 2 -306z m-2290 282 c0 -2 -14
-34 -31 -70 l-31 -66 -267 0 -266 0 -14 33 c-8 17 -22 49 -32 70 l-17 37 329
0 c181 0 329 -2 329 -4z m2160 -41 l0 -35 -60 0 -60 0 0 35 0 35 60 0 60 0 0
-35z m-2 -101 c3 -41 3 -41 -38 -48 -49 -8 -44 -26 6 -26 35 0 35 0 32 -42
l-3 -43 -55 0 -55 0 -3 39 c-2 24 2 42 10 47 10 7 10 11 0 21 -13 13 -17 80
-5 92 4 4 30 6 58 4 l50 -3 3 -41z m-2231 -146 c-14 -249 -81 -369 -230 -413
-63 -19 -200 -20 -215 -2 -6 7 -23 53 -37 102 -22 74 -27 119 -32 253 l-6 162
263 0 263 0 -6 -102z m4373 23 c0 -50 4 -51 150 -51 146 0 150 1 150 51 0 18
9 19 150 19 l150 0 0 -140 0 -140 -450 0 c-293 0 -450 3 -450 10 0 6 14 10 30
10 17 0 30 5 30 10 0 6 -13 10 -30 10 l-30 0 0 120 0 120 150 0 c141 0 150 -1
150 -19z m260 4 c0 -12 -19 -15 -110 -15 -91 0 -110 3 -110 15 0 12 19 15 110
15 91 0 110 -3 110 -15z m-2983 -96 c28 -55 8 -189 -28 -189 -5 0 -9 48 -9
111 0 84 3 110 13 107 6 -3 18 -15 24 -29z m583 -9 l0 -40 -60 0 -60 0 0 40 0
40 60 0 60 0 0 -40z m45 -96 c11 -12 15 -30 13 -63 l-3 -46 -115 0 -115 0 -3
46 c-4 69 10 79 118 79 68 0 92 -4 105 -16z m2093 -134 c7 -47 16 -50 152 -50
136 0 145 3 152 50 l3 25 148 3 147 3 0 -126 0 -125 -40 0 c-22 0 -40 -4 -40
-10 0 -5 18 -10 40 -10 22 0 40 -4 40 -10 0 -7 -157 -10 -450 -10 l-450 0 0
145 0 146 148 -3 147 -3 3 -25z m262 5 c0 -12 -19 -15 -110 -15 -91 0 -110 3
-110 15 0 12 19 15 110 15 91 0 110 -3 110 -15z m-2180 -50 c80 -14 147 -25
150 -26 3 -1 -8 -4 -25 -8 -41 -9 -34 -25 12 -29 21 -2 42 -8 47 -13 6 -5
-170 -9 -462 -9 -455 0 -472 1 -463 18 19 35 41 44 168 67 184 33 379 33 573
0z m-792 -87 c-2 -26 2 -35 20 -43 12 -5 22 -15 22 -22 0 -10 -30 -13 -120
-13 -125 0 -130 2 -109 43 24 48 60 67 127 67 l62 0 -2 -32z m1162 17 c28 -14
60 -60 60 -85 0 -6 -43 -10 -120 -10 -90 0 -120 3 -120 13 0 7 10 17 23 22 17
8 21 17 19 43 l-2 32 55 0 c31 0 69 -7 85 -15z m-770 -72 c0 -10 7 -30 14 -45
l15 -28 -50 0 -49 0 0 45 c0 45 0 45 35 45 27 0 35 -4 35 -17z m310 -28 l0
-45 -49 0 -50 0 15 28 c7 15 14 35 14 45 0 13 8 17 35 17 35 0 35 0 35 -45z
m-2270 -10 l-25 -24 -251 -3 c-236 -3 -253 -2 -273 16 -12 11 -21 23 -21 28 0
4 134 8 297 8 l298 0 -25 -25z m1690 5 c26 -26 55 -25 81 1 25 25 35 19 17
-10 -19 -30 -65 -37 -96 -14 -24 18 -40 43 -28 43 3 0 15 -9 26 -20z m350 0
c26 -26 55 -25 81 1 22 22 33 21 24 -4 -9 -21 -59 -40 -84 -32 -24 7 -51 32
-51 46 0 14 8 11 30 -11z m350 0 c26 -26 55 -25 81 1 22 22 33 21 24 -4 -15
-39 -95 -44 -122 -8 -26 33 -13 41 17 11z"/>
<path d="M3842 4028 c4 -67 22 -65 26 2 2 40 0 50 -13 50 -13 0 -15 -10 -13
-52z"/>
<path d="M2200 2420 c0 -5 5 -10 11 -10 5 0 7 5 4 10 -3 6 -8 10 -11 10 -2 0
-4 -4 -4 -10z"/>
<path d="M1190 1990 c0 -5 5 -10 11 -10 5 0 7 5 4 10 -3 6 -8 10 -11 10 -2 0
-4 -4 -4 -10z"/>
<path d="M5545 2350 c-3 -6 0 -13 8 -16 25 -9 100 0 105 14 5 15 -104 17 -113
2z"/>
<path d="M5570 2305 c0 -12 8 -16 33 -13 17 2 32 8 32 13 0 6 -15 11 -32 13
-25 3 -33 -1 -33 -13z"/>
<path d="M3976 2287 c-22 -16 -18 -55 7 -71 39 -24 79 44 41 71 -10 7 -21 13
-24 13 -3 0 -14 -6 -24 -13z"/>
<path d="M3995 1970 c-10 -11 -15 -23 -12 -27 8 -7 47 25 47 39 0 14 -16 9
-35 -12z"/>
<path d="M4001 1929 c-27 -29 -17 -39 11 -11 12 12 19 24 16 27 -3 4 -15 -4
-27 -16z"/>
<path d="M2260 2060 c0 -6 30 -10 70 -10 40 0 70 4 70 10 0 6 -30 10 -70 10
-40 0 -70 -4 -70 -10z"/>
<path d="M2420 2060 c0 -5 18 -10 40 -10 22 0 40 5 40 10 0 6 -18 10 -40 10
-22 0 -40 -4 -40 -10z"/>
<path d="M6440 1844 c0 -27 4 -43 10 -39 6 3 10 24 10 46 0 21 -4 39 -10 39
-5 0 -10 -21 -10 -46z"/>
<path d="M6440 1780 c0 -5 5 -10 10 -10 6 0 10 5 10 10 0 6 -4 10 -10 10 -5 0
-10 -4 -10 -10z"/>
<path d="M6127 1599 c-31 -36 -32 -39 -12 -39 8 0 15 -6 15 -14 0 -38 54 -42
65 -5 4 10 13 19 21 19 8 0 14 5 14 10 0 6 -6 10 -13 10 -8 0 -19 11 -25 25
-15 33 -32 32 -65 -6z m47 -14 c7 -19 -3 -47 -15 -39 -12 7 -12 54 0 54 5 0
11 -7 15 -15z"/>
<path d="M1577 812 c-78 -78 -87 -92 -64 -92 17 0 169 154 161 163 -13 12 -18
8 -97 -71z"/>
<path d="M1542 837 c-25 -26 -29 -47 -9 -47 19 0 47 33 47 53 0 23 -13 21 -38
-6z"/>
<path d="M387 413 c-4 -3 -7 -12 -7 -20 0 -10 36 -13 178 -13 98 0 182 3 185
7 4 3 2 12 -4 20 -9 10 -51 13 -179 13 -91 0 -170 -3 -173 -7z"/>
<path d="M791 406 c-9 -10 -9 -16 -1 -21 17 -10 37 12 24 25 -8 8 -15 6 -23
-4z"/>
<path d="M5196 413 c-12 -12 -6 -33 9 -33 8 0 15 6 15 14 0 17 -14 28 -24 19z"/>
<path d="M7335 410 c-14 -23 11 -30 106 -30 90 0 100 2 97 18 -3 14 -17 17
-100 20 -59 2 -99 -1 -103 -8z"/>
<path d="M7583 398 c2 -7 10 -13 17 -13 7 0 15 6 18 13 2 7 -5 12 -18 12 -13
0 -20 -5 -17 -12z"/>
</g>
</svg>
