<?xml version="1.0" encoding="UTF-8"?>
<svg xmlns="http://www.w3.org/2000/svg" xmlns:xlink="http://www.w3.org/1999/xlink" width="200px" height="150px" viewBox="0 0 200 150" version="1.1">
<g id="surface1">
<path style="fill:none;stroke-width:0.316;stroke-linecap:butt;stroke-linejoin:miter;stroke:rgb(0%,0%,0%);stroke-opacity:1;stroke-miterlimit:10;" d="M 210.527344 24.228516 C 243.75 28.470703 216.257812 56.847656 256.617188 79.857422 C 282.902344 94.839844 286.552734 115.611328 280.388672 134.917969 C 271.640625 162.351562 243.791016 184.259766 207.439453 193.388672 C 184.710938 199.089844 154.318359 202.359375 117.621094 196.271484 C 65.929688 187.699219 22.119141 169.96875 17.039062 119.091797 C 17.039062 119.091797 17.039062 91.810547 46.599609 104.027344 C 71.308594 114.240234 101.572266 114.251953 97.78125 90.322266 C 93.978516 66.392578 79.78125 65.408203 57.75 57.140625 C 35.71875 48.867188 43.910156 18.509766 64.201172 18.509766 C 84.492188 18.509766 97.277344 60.509766 136.599609 50.009766 C 175.921875 39.509766 158.449219 17.589844 210.527344 24.228516 Z M 210.527344 24.228516 " transform="matrix(0.666667,0,0,0.666667,0,0)"/>
<path style=" stroke:none;fill-rule:nonzero;fill:rgb(5.882353%,60%,80.392157%);fill-opacity:1;" d="M 169.566406 36.445312 C 169.285156 35.492188 168.90625 34.578125 168.441406 33.71875 L 170.6875 30.179688 L 166.488281 25.980469 L 162.945312 28.226562 C 162.085938 27.753906 161.171875 27.378906 160.21875 27.101562 L 159.300781 23.007812 L 153.359375 23.007812 L 152.441406 27.101562 C 151.488281 27.378906 150.574219 27.761719 149.714844 28.226562 L 146.171875 25.980469 L 141.972656 30.179688 L 144.21875 33.71875 C 143.753906 34.578125 143.375 35.492188 143.09375 36.445312 L 139 37.367188 L 139 43.308594 L 143.09375 44.226562 C 143.375 45.179688 143.753906 46.09375 144.21875 46.953125 L 141.972656 50.492188 L 146.171875 54.691406 L 149.714844 52.445312 C 150.574219 52.921875 151.480469 53.292969 152.441406 53.574219 L 153.359375 57.667969 L 159.300781 57.667969 L 160.21875 53.574219 C 161.171875 53.292969 162.085938 52.914062 162.945312 52.445312 L 166.488281 54.691406 L 170.6875 50.492188 L 168.441406 46.953125 C 168.914062 46.09375 169.285156 45.179688 169.566406 44.226562 L 173.660156 43.308594 L 173.660156 37.367188 Z M 156.332031 49.207031 C 151.433594 49.207031 147.460938 45.234375 147.460938 40.332031 C 147.460938 35.433594 151.433594 31.460938 156.332031 31.460938 C 161.234375 31.460938 165.207031 35.433594 165.207031 40.332031 C 165.207031 45.234375 161.234375 49.207031 156.332031 49.207031 Z M 149.761719 62.375 C 149.585938 61.78125 149.351562 61.21875 149.058594 60.6875 L 150.445312 58.492188 L 149.148438 57.191406 L 147.847656 55.894531 L 145.652344 57.285156 C 145.121094 56.992188 144.554688 56.761719 143.964844 56.585938 L 143.398438 54.054688 L 139.726562 54.054688 L 139.160156 56.585938 C 138.566406 56.761719 138.007812 56.992188 137.472656 57.285156 L 135.28125 55.894531 L 133.980469 57.191406 L 132.679688 58.492188 L 134.066406 60.6875 C 133.78125 61.21875 133.539062 61.78125 133.367188 62.375 L 130.832031 62.941406 L 130.832031 66.613281 L 133.367188 67.179688 C 133.539062 67.773438 133.773438 68.332031 134.066406 68.867188 L 132.679688 71.058594 L 135.28125 73.660156 L 137.472656 72.265625 C 138.007812 72.558594 138.566406 72.792969 139.160156 72.964844 L 139.726562 75.5 L 143.398438 75.5 L 143.964844 72.964844 C 144.558594 72.792969 145.121094 72.558594 145.652344 72.265625 L 147.847656 73.660156 L 149.148438 72.359375 L 150.445312 71.058594 L 149.058594 68.867188 C 149.351562 68.332031 149.585938 67.773438 149.761719 67.179688 L 152.292969 66.613281 L 152.292969 62.941406 Z M 141.566406 70.273438 C 138.535156 70.273438 136.074219 67.8125 136.074219 64.78125 C 136.074219 61.746094 138.535156 59.285156 141.566406 59.285156 C 144.601562 59.285156 147.058594 61.746094 147.058594 64.78125 C 147.058594 67.8125 144.601562 70.273438 141.566406 70.273438 Z M 141.566406 70.273438 "/>
<path style=" stroke:none;fill-rule:nonzero;fill:rgb(5.882353%,60%,80.392157%);fill-opacity:1;" d="M 126.339844 137.660156 L 40.980469 137.660156 C 39.753906 137.660156 38.761719 136.667969 38.761719 135.441406 L 38.761719 23.933594 C 38.761719 22.707031 39.753906 21.714844 40.980469 21.714844 L 126.347656 21.714844 C 127.574219 21.714844 128.566406 22.707031 128.566406 23.933594 L 128.566406 135.433594 C 128.558594 136.667969 127.566406 137.660156 126.339844 137.660156 Z M 126.339844 137.660156 "/>
<path style=" stroke:none;fill-rule:nonzero;fill:rgb(100%,100%,100%);fill-opacity:1;" d="M 123.933594 26.339844 L 123.933594 133.035156 L 43.382812 133.035156 L 43.382812 26.339844 Z M 123.933594 26.339844 "/>
<path style=" stroke:none;fill-rule:nonzero;fill:rgb(43.137255%,84.313725%,100%);fill-opacity:1;" d="M 99.761719 16.980469 L 67.566406 16.980469 C 65.933594 16.980469 64.605469 18.308594 64.605469 19.941406 L 64.605469 26.339844 L 102.71875 26.339844 L 102.71875 19.941406 C 102.71875 18.308594 101.394531 16.980469 99.761719 16.980469 Z M 99.761719 16.980469 "/>
<path style=" stroke:none;fill-rule:nonzero;fill:rgb(5.882353%,60%,80.392157%);fill-opacity:1;" d="M 52.613281 61.773438 L 60.199219 61.773438 L 60.199219 69.359375 L 52.613281 69.359375 Z M 52.613281 61.773438 "/>
<path style=" stroke:none;fill-rule:nonzero;fill:rgb(5.882353%,60%,80.392157%);fill-opacity:1;" d="M 52.613281 75.894531 L 60.199219 75.894531 L 60.199219 83.480469 L 52.613281 83.480469 Z M 52.613281 75.894531 "/>
<path style=" stroke:none;fill-rule:nonzero;fill:rgb(5.882353%,60%,80.392157%);fill-opacity:1;" d="M 52.613281 90.011719 L 60.199219 90.011719 L 60.199219 97.601562 L 52.613281 97.601562 Z M 52.613281 90.011719 "/>
<path style=" stroke:none;fill-rule:nonzero;fill:rgb(5.882353%,60%,80.392157%);fill-opacity:1;" d="M 52.613281 104.132812 L 60.199219 104.132812 L 60.199219 111.71875 L 52.613281 111.71875 Z M 52.613281 104.132812 "/>
<path style="fill:none;stroke-width:0.947;stroke-linecap:butt;stroke-linejoin:miter;stroke:rgb(0%,0%,0%);stroke-opacity:1;stroke-miterlimit:10;" d="M 96.398438 98.349609 L 172.060547 98.349609 " transform="matrix(0.666667,0,0,0.666667,0,0)"/>
<path style="fill:none;stroke-width:0.947;stroke-linecap:butt;stroke-linejoin:miter;stroke:rgb(0%,0%,0%);stroke-opacity:1;stroke-miterlimit:10;" d="M 96.398438 119.53125 L 172.060547 119.53125 " transform="matrix(0.666667,0,0,0.666667,0,0)"/>
<path style="fill:none;stroke-width:0.947;stroke-linecap:butt;stroke-linejoin:miter;stroke:rgb(0%,0%,0%);stroke-opacity:1;stroke-miterlimit:10;" d="M 96.398438 140.712891 L 172.060547 140.712891 " transform="matrix(0.666667,0,0,0.666667,0,0)"/>
<path style="fill:none;stroke-width:0.947;stroke-linecap:butt;stroke-linejoin:miter;stroke:rgb(0%,0%,0%);stroke-opacity:1;stroke-miterlimit:10;" d="M 96.398438 161.888672 L 172.060547 161.888672 " transform="matrix(0.666667,0,0,0.666667,0,0)"/>
<path style="fill:none;stroke-width:1.263;stroke-linecap:butt;stroke-linejoin:miter;stroke:rgb(100%,49.803922%,43.137255%);stroke-opacity:1;stroke-miterlimit:10;" d="M 79.980469 95.150391 L 84.351562 98.917969 L 94.177734 87.779297 " transform="matrix(0.666667,0,0,0.666667,0,0)"/>
<path style="fill:none;stroke-width:1.263;stroke-linecap:butt;stroke-linejoin:miter;stroke:rgb(100%,49.803922%,43.137255%);stroke-opacity:1;stroke-miterlimit:10;" d="M 79.980469 116.431641 L 84.351562 120.199219 L 94.177734 109.060547 " transform="matrix(0.666667,0,0,0.666667,0,0)"/>
<path style="fill:none;stroke-width:1.263;stroke-linecap:butt;stroke-linejoin:miter;stroke:rgb(100%,49.803922%,43.137255%);stroke-opacity:1;stroke-miterlimit:10;" d="M 79.980469 137.712891 L 84.351562 141.480469 L 94.177734 130.347656 " transform="matrix(0.666667,0,0,0.666667,0,0)"/>
<path style="fill:none;stroke-width:0.947;stroke-linecap:butt;stroke-linejoin:miter;stroke:rgb(0%,0%,0%);stroke-opacity:1;stroke-miterlimit:10;" d="M 78.919922 55.880859 L 172.060547 55.880859 " transform="matrix(0.666667,0,0,0.666667,0,0)"/>
<path style="fill:none;stroke-width:0.947;stroke-linecap:butt;stroke-linejoin:miter;stroke:rgb(0%,0%,0%);stroke-opacity:1;stroke-miterlimit:10;" d="M 78.919922 70.447266 L 172.060547 70.447266 " transform="matrix(0.666667,0,0,0.666667,0,0)"/>
<path style="fill-rule:nonzero;fill:rgb(100%,100%,100%);fill-opacity:1;stroke-width:0.316;stroke-linecap:butt;stroke-linejoin:miter;stroke:rgb(0%,0%,0%);stroke-opacity:1;stroke-miterlimit:10;" d="M 75.779297 97.371094 L 39.228516 97.371094 C 38.068359 97.371094 37.130859 96.427734 37.130859 95.267578 L 37.130859 47.648438 C 37.130859 46.488281 38.068359 45.550781 39.228516 45.550781 L 75.767578 45.550781 C 76.927734 45.550781 77.871094 46.488281 77.871094 47.648438 L 77.871094 95.261719 C 77.882812 96.427734 76.939453 97.371094 75.779297 97.371094 Z M 75.779297 97.371094 " transform="matrix(0.666667,0,0,0.666667,0,0)"/>
<path style=" stroke:none;fill-rule:nonzero;fill:rgb(5.882353%,60%,80.392157%);fill-opacity:1;" d="M 28.285156 32.699219 L 48.386719 32.699219 L 48.386719 47.640625 L 28.285156 47.640625 Z M 28.285156 32.699219 "/>
<path style="fill:none;stroke-width:0.947;stroke-linecap:butt;stroke-linejoin:miter;stroke:rgb(0%,0%,0%);stroke-opacity:1;stroke-miterlimit:10;" d="M 42.427734 76.828125 L 55.21875 76.828125 " transform="matrix(0.666667,0,0,0.666667,0,0)"/>
<path style="fill:none;stroke-width:0.947;stroke-linecap:butt;stroke-linejoin:miter;stroke:rgb(0%,0%,0%);stroke-opacity:1;stroke-miterlimit:10;" d="M 42.427734 83.009766 L 67.359375 83.009766 " transform="matrix(0.666667,0,0,0.666667,0,0)"/>
<path style="fill:none;stroke-width:0.947;stroke-linecap:butt;stroke-linejoin:miter;stroke:rgb(0%,0%,0%);stroke-opacity:1;stroke-miterlimit:10;" d="M 42.427734 89.197266 L 72.580078 89.197266 " transform="matrix(0.666667,0,0,0.666667,0,0)"/>
<path style=" stroke:none;fill-rule:nonzero;fill:rgb(100%,100%,100%);fill-opacity:1;" d="M 29.507812 39.039062 C 29.507812 39.039062 33.441406 37.519531 34.214844 40.246094 C 34.980469 42.960938 36.492188 42.671875 37.011719 42.152344 C 37.566406 41.601562 37.621094 38.527344 39.539062 38.105469 C 40.988281 37.792969 42.546875 38.261719 42.726562 40.632812 C 42.898438 42.921875 43.273438 44.09375 44.09375 43.898438 C 44.914062 43.707031 44.90625 40.1875 45.761719 39.773438 C 46.679688 39.332031 47.160156 39.734375 47.160156 39.734375 L 47.160156 46.5 L 29.507812 46.5 Z M 29.507812 39.039062 "/>
<path style="fill-rule:nonzero;fill:rgb(100%,100%,100%);fill-opacity:1;stroke-width:0.316;stroke-linecap:butt;stroke-linejoin:miter;stroke:rgb(0%,0%,0%);stroke-opacity:1;stroke-miterlimit:10;" d="M 136.552734 206.402344 L 210.931641 206.402344 C 212.208984 206.402344 213.251953 205.359375 213.251953 204.082031 L 213.251953 151.927734 C 213.251953 150.650391 212.208984 149.607422 210.931641 149.607422 L 136.552734 149.607422 C 135.269531 149.607422 134.232422 150.650391 134.232422 151.927734 L 134.232422 204.082031 C 134.232422 205.359375 135.269531 206.402344 136.552734 206.402344 Z M 136.552734 206.402344 " transform="matrix(0.666667,0,0,0.666667,0,0)"/>
<path style=" stroke:none;fill-rule:nonzero;fill:rgb(5.882353%,60%,80.392157%);fill-opacity:1;" d="M 95.546875 120.460938 L 100.519531 120.460938 L 100.519531 128.347656 L 95.546875 128.347656 Z M 95.546875 120.460938 "/>
<path style=" stroke:none;fill-rule:nonzero;fill:rgb(5.882353%,60%,80.392157%);fill-opacity:1;" d="M 107.414062 109.945312 L 112.386719 109.945312 L 112.386719 128.339844 L 107.414062 128.339844 Z M 107.414062 109.945312 "/>
<path style=" stroke:none;fill-rule:nonzero;fill:rgb(5.882353%,60%,80.392157%);fill-opacity:1;" d="M 119.273438 103.960938 L 124.246094 103.960938 L 124.246094 128.339844 L 119.273438 128.339844 Z M 119.273438 103.960938 "/>
<path style=" stroke:none;fill-rule:nonzero;fill:rgb(5.882353%,60%,80.392157%);fill-opacity:1;" d="M 131.132812 123.378906 L 136.105469 123.378906 L 136.105469 128.347656 L 131.132812 128.347656 Z M 131.132812 123.378906 "/>
<path style=" stroke:none;fill-rule:nonzero;fill:rgb(5.882353%,60%,80.392157%);fill-opacity:1;" d="M 131.132812 131.054688 L 136.105469 131.054688 L 136.105469 131.535156 L 131.132812 131.535156 Z M 131.132812 131.054688 "/>
<path style=" stroke:none;fill-rule:nonzero;fill:rgb(5.882353%,60%,80.392157%);fill-opacity:1;" d="M 119.273438 131.054688 L 124.246094 131.054688 L 124.246094 131.535156 L 119.273438 131.535156 Z M 119.273438 131.054688 "/>
<path style=" stroke:none;fill-rule:nonzero;fill:rgb(5.882353%,60%,80.392157%);fill-opacity:1;" d="M 107.414062 131.054688 L 112.386719 131.054688 L 112.386719 131.535156 L 107.414062 131.535156 Z M 107.414062 131.054688 "/>
<path style=" stroke:none;fill-rule:nonzero;fill:rgb(5.882353%,60%,80.392157%);fill-opacity:1;" d="M 95.546875 131.054688 L 100.519531 131.054688 L 100.519531 131.535156 L 95.546875 131.535156 Z M 95.546875 131.054688 "/>
</g>
</svg>
